# xmcd CD database file
#
# Track frame offsets:
#	150
#	29155
#	61110
#	81392
#	106457
#	128765
#
# Disc length: 1916 seconds
#
# Revision: 0
# Processed by: cddbd v1.5PL3 Copyright (c) Steve Scherf et al.
# Submitted via: CDex 1.51
#
DISCID=4e077a06
DTITLE=Cosmic Villadge - Nice Age
DYEAR=1998
DGENRE=Club
TTITLE0=Technopolis
TTITLE1=Behind The Mask (Hotel 90405 version)
TTITLE2=Nice Age
TTITLE3=Rydeen
TTITLE4=Behind The Mask (Rice beat version)
TTITLE5=Tong Poo (東風)
EXTD=YEAR: 1998
EXTT0=
EXTT1=
EXTT2=
EXTT3=
EXTT4=
EXTT5=
PLAYORDER=
